# xmcd
#
# Track frame offsets: 
#        150
#        18930
#        34129
#        53550
#        72695
#        88406
#        110835
#        131199
#        149499
#        170911
#        187248
#        208674
#
# Disc length: 3018 seconds
#
# Revision: 0
# Processed by: cddbd v1.5.1PL0 Copyright (c) Steve Scherf et al.
# Submitted via: ExactAudioCopy v0.95a5
#
DISCID=c70bc80c
DTITLE=Robbie Williams - Sing When You´Re Winning
DYEAR=2000
DGENRE=Acid Jazz
TTITLE0=If It´S Hurting You
TTITLE1=Better Man
TTITLE2=Rock DJ
TTITLE3=Supreme
TTITLE4=Kids
TTITLE5=Let Love Be Your Energy
TTITLE6=Singing For The Lonely
TTITLE7=Love Calling Earth
TTITLE8=Knutsford City Limits
TTITLE9=Forever Texas
TTITLE10=By All Means Necessary
TTITLE11=The Road To Mandalay
EXTD=
EXTT0=
EXTT1=
EXTT2=
EXTT3=
EXTT4=
EXTT5=
EXTT6=
EXTT7=
EXTT8=
EXTT9=
EXTT10=
EXTT11=
PLAYORDER=
